{
    "asset": {
        "version": "2.0",
        "generator": "Open Asset Import Library (assimp v5.4.0)"
    },
    "extensionsUsed": [
        "KHR_materials_specular",
        "KHR_materials_volume",
        "KHR_materials_ior",
        "FB_ngon_encoding"
    ],
    "accessors": [
        {
            "bufferView": 0,
            "byteOffset": 0,
            "componentType": 5126,
            "count": 589762,
            "type": "VEC3",
            "max": [
                0.5132899880409241,
                0.5059099793434143,
                0.49213001132011414
            ],
            "min": [
                -0.5065799951553345,
                -0.5150799751281738,
                -0.478520005941391
            ]
        },
        {
            "bufferView": 1,
            "byteOffset": 0,
            "componentType": 5126,
            "count": 589762,
            "type": "VEC3",
            "max": [
                0.9999649524688721,
                0.9999851584434509,
                0.9999390840530396
            ],
            "min": [
                -0.9999950528144836,
                -0.9998778104782104,
                -0.9999656081199646
            ]
        },
        {
            "bufferView": 2,
            "byteOffset": 0,
            "componentType": 5125,
            "count": 589824,
            "type": "SCALAR",
            "max": [
                589761
            ],
            "min": [
                0
            ]
        }
    ],
    "buffers": [
        {
            "byteLength": 16513584,
            "uri": "SHAPE_SFM_200k_v20180804.bin"
        }
    ],
    "bufferViews": [
        {
            "buffer": 0,
            "byteOffset": 0,
            "byteLength": 7077144,
            "target": 34962
        },
        {
            "buffer": 0,
            "byteOffset": 7077144,
            "byteLength": 7077144,
            "target": 34962
        },
        {
            "buffer": 0,
            "byteOffset": 14154288,
            "byteLength": 2359296,
            "target": 34963
        }
    ],
    "materials": [
        {
            "name": "DefaultMaterial",
            "pbrMetallicRoughness": {
                "baseColorFactor": [
                    0.6000000238418579,
                    0.6000000238418579,
                    0.6000000238418579,
                    1.0
                ],
                "metallicFactor": 0.0
            },
            "extensions": {
                "KHR_materials_specular": {
                    "specularFactor": 1.0,
                    "specularColorFactor": [
                        0.0,
                        0.0,
                        0.0
                    ]
                },
                "KHR_materials_ior": {
                    "ior": 1.0
                }
            }
        }
    ],
    "meshes": [
        {
            "name": "defaultobject",
            "primitives": [
                {
                    "mode": 4,
                    "material": 0,
                    "indices": 2,
                    "attributes": {
                        "POSITION": 0,
                        "NORMAL": 1
                    }
                }
            ]
        }
    ],
    "nodes": [
        {
            "name": "SHAPE_SFM_200k_v20180804.obj",
            "children": [
                1
            ]
        },
        {
            "name": "defaultobject",
            "mesh": 0
        }
    ],
    "scenes": [
        {
            "nodes": [
                0
            ]
        }
    ],
    "scene": 0
}